<mxfile host="Electron" modified="2023-06-11T17:51:24.663Z" agent="Mozilla/5.0 (Windows NT 10.0; Win64; x64) AppleWebKit/537.36 (KHTML, like Gecko) draw.io/21.2.8 Chrome/112.0.5615.165 Electron/24.2.0 Safari/537.36" etag="MFB7cnMKeue8LxPwkn3_" version="21.2.8" type="device">
  <diagram name="Page-1" id="2YBvvXClWsGukQMizWep">
    <mxGraphModel dx="1522" dy="1980" grid="1" gridSize="10" guides="1" tooltips="1" connect="1" arrows="1" fold="1" page="1" pageScale="1" pageWidth="850" pageHeight="1100" math="0" shadow="0">
      <root>
        <mxCell id="0" />
        <mxCell id="1" parent="0" />
        <mxCell id="bgkuVg4zOdrc67vG8Jxf-2" value="&lt;font face=&quot;Helvetica&quot;&gt;Right &lt;br&gt;Back &lt;br&gt;Motor&lt;/font&gt;&lt;br style=&quot;border-color: var(--border-color); color: rgb(0, 0, 0); font-family: Helvetica; font-size: 12px; font-style: normal; font-variant-ligatures: normal; font-variant-caps: normal; font-weight: 400; letter-spacing: normal; orphans: 2; text-align: center; text-indent: 0px; text-transform: none; widows: 2; word-spacing: 0px; -webkit-text-stroke-width: 0px; background-color: rgb(251, 251, 251); text-decoration-thickness: initial; text-decoration-style: initial; text-decoration-color: initial;&quot;&gt;" style="ellipse;whiteSpace=wrap;html=1;aspect=fixed;fontFamily=Verdana;fillColor=#D1D1D1;" vertex="1" parent="1">
          <mxGeometry x="640" y="650" width="80" height="80" as="geometry" />
        </mxCell>
        <mxCell id="bgkuVg4zOdrc67vG8Jxf-3" value="Left&amp;nbsp;&lt;br&gt;Back&lt;br&gt;Motor" style="ellipse;whiteSpace=wrap;html=1;aspect=fixed;fillColor=#D1D1D1;" vertex="1" parent="1">
          <mxGeometry x="80" y="660" width="80" height="80" as="geometry" />
        </mxCell>
        <mxCell id="bgkuVg4zOdrc67vG8Jxf-4" value="Right&lt;br&gt;Front&lt;br&gt;Motor" style="ellipse;whiteSpace=wrap;html=1;aspect=fixed;fillColor=#D1D1D1;" vertex="1" parent="1">
          <mxGeometry x="640" y="40" width="80" height="80" as="geometry" />
        </mxCell>
        <mxCell id="bgkuVg4zOdrc67vG8Jxf-5" value="Leftt &lt;br&gt;Front&lt;br&gt;Motor" style="ellipse;whiteSpace=wrap;html=1;aspect=fixed;fillColor=#D1D1D1;fontColor=#333333;strokeColor=#666666;" vertex="1" parent="1">
          <mxGeometry x="80" y="40" width="80" height="80" as="geometry" />
        </mxCell>
        <mxCell id="bgkuVg4zOdrc67vG8Jxf-7" value="&lt;br&gt;&lt;br&gt;&lt;br&gt;&lt;p class=&quot;MsoNormal&quot;&gt;POWER SYSTEM – &lt;span style=&quot;mso-spacerun:yes&quot;&gt;&amp;nbsp;&lt;/span&gt;battery and PDB&lt;/p&gt;&lt;br&gt;&lt;br&gt;&lt;p class=&quot;MsoNormal&quot;&gt;COMMUNICATION SYSTEM – camera, antenna, video transmitter&lt;br&gt;and receiver&lt;/p&gt;&lt;br&gt;&lt;br&gt;&lt;p class=&quot;MsoNormal&quot;&gt;CONTROL SYSTEM – flight controller, motors and electronic&lt;br&gt;speed controller&lt;/p&gt;&lt;br&gt;&lt;br&gt;&lt;br&gt;&lt;br&gt;&lt;br&gt;" style="rounded=0;whiteSpace=wrap;html=1;" vertex="1" parent="1">
          <mxGeometry x="60" y="1070" width="280" height="280" as="geometry" />
        </mxCell>
        <mxCell id="bgkuVg4zOdrc67vG8Jxf-8" value="&lt;span style=&quot;color: rgb(0, 0, 0); font-family: Helvetica; font-size: 12px; font-style: normal; font-variant-ligatures: normal; font-variant-caps: normal; font-weight: 400; letter-spacing: normal; orphans: 2; text-align: center; text-indent: 0px; text-transform: none; widows: 2; word-spacing: 0px; -webkit-text-stroke-width: 0px; background-color: rgb(251, 251, 251); text-decoration-thickness: initial; text-decoration-style: initial; text-decoration-color: initial; float: none; display: inline !important;&quot;&gt;Electronics&amp;nbsp;&lt;/span&gt;&lt;br style=&quot;border-color: var(--border-color); color: rgb(0, 0, 0); font-family: Helvetica; font-size: 12px; font-style: normal; font-variant-ligatures: normal; font-variant-caps: normal; font-weight: 400; letter-spacing: normal; orphans: 2; text-align: center; text-indent: 0px; text-transform: none; widows: 2; word-spacing: 0px; -webkit-text-stroke-width: 0px; background-color: rgb(251, 251, 251); text-decoration-thickness: initial; text-decoration-style: initial; text-decoration-color: initial;&quot;&gt;&lt;span style=&quot;color: rgb(0, 0, 0); font-family: Helvetica; font-size: 12px; font-style: normal; font-variant-ligatures: normal; font-variant-caps: normal; font-weight: 400; letter-spacing: normal; orphans: 2; text-align: center; text-indent: 0px; text-transform: none; widows: 2; word-spacing: 0px; -webkit-text-stroke-width: 0px; background-color: rgb(251, 251, 251); text-decoration-thickness: initial; text-decoration-style: initial; text-decoration-color: initial; float: none; display: inline !important;&quot;&gt;Speed&lt;/span&gt;&lt;br style=&quot;border-color: var(--border-color); color: rgb(0, 0, 0); font-family: Helvetica; font-size: 12px; font-style: normal; font-variant-ligatures: normal; font-variant-caps: normal; font-weight: 400; letter-spacing: normal; orphans: 2; text-align: center; text-indent: 0px; text-transform: none; widows: 2; word-spacing: 0px; -webkit-text-stroke-width: 0px; background-color: rgb(251, 251, 251); text-decoration-thickness: initial; text-decoration-style: initial; text-decoration-color: initial;&quot;&gt;&lt;span style=&quot;color: rgb(0, 0, 0); font-family: Helvetica; font-size: 12px; font-style: normal; font-variant-ligatures: normal; font-variant-caps: normal; font-weight: 400; letter-spacing: normal; orphans: 2; text-align: center; text-indent: 0px; text-transform: none; widows: 2; word-spacing: 0px; -webkit-text-stroke-width: 0px; background-color: rgb(251, 251, 251); text-decoration-thickness: initial; text-decoration-style: initial; text-decoration-color: initial; float: none; display: inline !important;&quot;&gt;Controller(ESC)&lt;/span&gt;" style="rounded=1;whiteSpace=wrap;html=1;" vertex="1" parent="1">
          <mxGeometry x="510" y="600" width="120" height="60" as="geometry" />
        </mxCell>
        <mxCell id="bgkuVg4zOdrc67vG8Jxf-9" value="&lt;br&gt;&lt;span style=&quot;color: rgb(0, 0, 0); font-family: Helvetica; font-size: 12px; font-style: normal; font-variant-ligatures: normal; font-variant-caps: normal; font-weight: 400; letter-spacing: normal; orphans: 2; text-align: center; text-indent: 0px; text-transform: none; widows: 2; word-spacing: 0px; -webkit-text-stroke-width: 0px; background-color: rgb(251, 251, 251); text-decoration-thickness: initial; text-decoration-style: initial; text-decoration-color: initial; float: none; display: inline !important;&quot;&gt;Electronics&amp;nbsp;&lt;/span&gt;&lt;br style=&quot;border-color: var(--border-color); color: rgb(0, 0, 0); font-family: Helvetica; font-size: 12px; font-style: normal; font-variant-ligatures: normal; font-variant-caps: normal; font-weight: 400; letter-spacing: normal; orphans: 2; text-align: center; text-indent: 0px; text-transform: none; widows: 2; word-spacing: 0px; -webkit-text-stroke-width: 0px; background-color: rgb(251, 251, 251); text-decoration-thickness: initial; text-decoration-style: initial; text-decoration-color: initial;&quot;&gt;&lt;span style=&quot;color: rgb(0, 0, 0); font-family: Helvetica; font-size: 12px; font-style: normal; font-variant-ligatures: normal; font-variant-caps: normal; font-weight: 400; letter-spacing: normal; orphans: 2; text-align: center; text-indent: 0px; text-transform: none; widows: 2; word-spacing: 0px; -webkit-text-stroke-width: 0px; background-color: rgb(251, 251, 251); text-decoration-thickness: initial; text-decoration-style: initial; text-decoration-color: initial; float: none; display: inline !important;&quot;&gt;Speed&lt;/span&gt;&lt;br style=&quot;border-color: var(--border-color); color: rgb(0, 0, 0); font-family: Helvetica; font-size: 12px; font-style: normal; font-variant-ligatures: normal; font-variant-caps: normal; font-weight: 400; letter-spacing: normal; orphans: 2; text-align: center; text-indent: 0px; text-transform: none; widows: 2; word-spacing: 0px; -webkit-text-stroke-width: 0px; background-color: rgb(251, 251, 251); text-decoration-thickness: initial; text-decoration-style: initial; text-decoration-color: initial;&quot;&gt;&lt;span style=&quot;color: rgb(0, 0, 0); font-family: Helvetica; font-size: 12px; font-style: normal; font-variant-ligatures: normal; font-variant-caps: normal; font-weight: 400; letter-spacing: normal; orphans: 2; text-align: center; text-indent: 0px; text-transform: none; widows: 2; word-spacing: 0px; -webkit-text-stroke-width: 0px; background-color: rgb(251, 251, 251); text-decoration-thickness: initial; text-decoration-style: initial; text-decoration-color: initial; float: none; display: inline !important;&quot;&gt;Controller(ESC)&lt;/span&gt;&lt;br&gt;" style="rounded=1;whiteSpace=wrap;html=1;fillColor=#FFFFFF;" vertex="1" parent="1">
          <mxGeometry x="170" y="600" width="120" height="60" as="geometry" />
        </mxCell>
        <mxCell id="bgkuVg4zOdrc67vG8Jxf-10" value="&lt;span style=&quot;color: rgb(0, 0, 0); font-family: Helvetica; font-size: 12px; font-style: normal; font-variant-ligatures: normal; font-variant-caps: normal; font-weight: 400; letter-spacing: normal; orphans: 2; text-align: center; text-indent: 0px; text-transform: none; widows: 2; word-spacing: 0px; -webkit-text-stroke-width: 0px; background-color: rgb(251, 251, 251); text-decoration-thickness: initial; text-decoration-style: initial; text-decoration-color: initial; float: none; display: inline !important;&quot;&gt;Electronics&amp;nbsp;&lt;/span&gt;&lt;br style=&quot;border-color: var(--border-color); color: rgb(0, 0, 0); font-family: Helvetica; font-size: 12px; font-style: normal; font-variant-ligatures: normal; font-variant-caps: normal; font-weight: 400; letter-spacing: normal; orphans: 2; text-align: center; text-indent: 0px; text-transform: none; widows: 2; word-spacing: 0px; -webkit-text-stroke-width: 0px; background-color: rgb(251, 251, 251); text-decoration-thickness: initial; text-decoration-style: initial; text-decoration-color: initial;&quot;&gt;&lt;span style=&quot;color: rgb(0, 0, 0); font-family: Helvetica; font-size: 12px; font-style: normal; font-variant-ligatures: normal; font-variant-caps: normal; font-weight: 400; letter-spacing: normal; orphans: 2; text-align: center; text-indent: 0px; text-transform: none; widows: 2; word-spacing: 0px; -webkit-text-stroke-width: 0px; background-color: rgb(251, 251, 251); text-decoration-thickness: initial; text-decoration-style: initial; text-decoration-color: initial; float: none; display: inline !important;&quot;&gt;Speed&lt;/span&gt;&lt;br style=&quot;border-color: var(--border-color); color: rgb(0, 0, 0); font-family: Helvetica; font-size: 12px; font-style: normal; font-variant-ligatures: normal; font-variant-caps: normal; font-weight: 400; letter-spacing: normal; orphans: 2; text-align: center; text-indent: 0px; text-transform: none; widows: 2; word-spacing: 0px; -webkit-text-stroke-width: 0px; background-color: rgb(251, 251, 251); text-decoration-thickness: initial; text-decoration-style: initial; text-decoration-color: initial;&quot;&gt;&lt;span style=&quot;color: rgb(0, 0, 0); font-family: Helvetica; font-size: 12px; font-style: normal; font-variant-ligatures: normal; font-variant-caps: normal; font-weight: 400; letter-spacing: normal; orphans: 2; text-align: center; text-indent: 0px; text-transform: none; widows: 2; word-spacing: 0px; -webkit-text-stroke-width: 0px; background-color: rgb(251, 251, 251); text-decoration-thickness: initial; text-decoration-style: initial; text-decoration-color: initial; float: none; display: inline !important;&quot;&gt;Controller(ESC)&lt;/span&gt;" style="rounded=1;whiteSpace=wrap;html=1;" vertex="1" parent="1">
          <mxGeometry x="510" y="120" width="120" height="60" as="geometry" />
        </mxCell>
        <mxCell id="bgkuVg4zOdrc67vG8Jxf-11" value="Electronics&amp;nbsp;&lt;br&gt;Speed&lt;br&gt;Controller(ESC)" style="rounded=1;whiteSpace=wrap;html=1;" vertex="1" parent="1">
          <mxGeometry x="170" y="120" width="120" height="60" as="geometry" />
        </mxCell>
        <mxCell id="bgkuVg4zOdrc67vG8Jxf-12" value="" style="endArrow=none;html=1;rounded=0;entryX=1;entryY=1;entryDx=0;entryDy=0;exitX=0.002;exitY=0.076;exitDx=0;exitDy=0;exitPerimeter=0;" edge="1" parent="1" source="bgkuVg4zOdrc67vG8Jxf-11" target="bgkuVg4zOdrc67vG8Jxf-5">
          <mxGeometry width="50" height="50" relative="1" as="geometry">
            <mxPoint x="510" y="360" as="sourcePoint" />
            <mxPoint x="520" y="300" as="targetPoint" />
          </mxGeometry>
        </mxCell>
        <mxCell id="bgkuVg4zOdrc67vG8Jxf-13" value="" style="endArrow=none;html=1;rounded=0;entryX=0.905;entryY=0.803;entryDx=0;entryDy=0;entryPerimeter=0;exitX=0.044;exitY=0.02;exitDx=0;exitDy=0;exitPerimeter=0;" edge="1" parent="1" source="bgkuVg4zOdrc67vG8Jxf-11" target="bgkuVg4zOdrc67vG8Jxf-5">
          <mxGeometry width="50" height="50" relative="1" as="geometry">
            <mxPoint x="180" y="120" as="sourcePoint" />
            <mxPoint x="290" y="90" as="targetPoint" />
          </mxGeometry>
        </mxCell>
        <mxCell id="bgkuVg4zOdrc67vG8Jxf-14" value="" style="endArrow=none;html=1;rounded=0;entryX=0.805;entryY=0.901;entryDx=0;entryDy=0;entryPerimeter=0;exitX=-0.005;exitY=0.168;exitDx=0;exitDy=0;exitPerimeter=0;" edge="1" parent="1" source="bgkuVg4zOdrc67vG8Jxf-11" target="bgkuVg4zOdrc67vG8Jxf-5">
          <mxGeometry width="50" height="50" relative="1" as="geometry">
            <mxPoint x="130" y="140" as="sourcePoint" />
            <mxPoint x="180" y="90" as="targetPoint" />
          </mxGeometry>
        </mxCell>
        <mxCell id="bgkuVg4zOdrc67vG8Jxf-15" value="" style="endArrow=none;html=1;rounded=0;exitX=0;exitY=0;exitDx=0;exitDy=0;entryX=0.986;entryY=0.864;entryDx=0;entryDy=0;entryPerimeter=0;" edge="1" parent="1" source="bgkuVg4zOdrc67vG8Jxf-2" target="bgkuVg4zOdrc67vG8Jxf-8">
          <mxGeometry width="50" height="50" relative="1" as="geometry">
            <mxPoint x="646" y="611" as="sourcePoint" />
            <mxPoint x="630" y="600" as="targetPoint" />
          </mxGeometry>
        </mxCell>
        <mxCell id="bgkuVg4zOdrc67vG8Jxf-16" value="" style="endArrow=none;html=1;rounded=0;exitX=0.199;exitY=0.098;exitDx=0;exitDy=0;exitPerimeter=0;entryX=1;entryY=0.75;entryDx=0;entryDy=0;" edge="1" parent="1" source="bgkuVg4zOdrc67vG8Jxf-2" target="bgkuVg4zOdrc67vG8Jxf-8">
          <mxGeometry width="50" height="50" relative="1" as="geometry">
            <mxPoint x="651" y="607" as="sourcePoint" />
            <mxPoint x="630" y="590" as="targetPoint" />
          </mxGeometry>
        </mxCell>
        <mxCell id="bgkuVg4zOdrc67vG8Jxf-17" value="" style="endArrow=none;html=1;rounded=0;entryX=0.968;entryY=0.966;entryDx=0;entryDy=0;entryPerimeter=0;exitX=0.085;exitY=0.218;exitDx=0;exitDy=0;exitPerimeter=0;" edge="1" parent="1" source="bgkuVg4zOdrc67vG8Jxf-2" target="bgkuVg4zOdrc67vG8Jxf-8">
          <mxGeometry width="50" height="50" relative="1" as="geometry">
            <mxPoint x="645" y="616" as="sourcePoint" />
            <mxPoint x="620" y="598" as="targetPoint" />
          </mxGeometry>
        </mxCell>
        <mxCell id="bgkuVg4zOdrc67vG8Jxf-21" value="" style="endArrow=none;html=1;rounded=0;entryX=0;entryY=1;entryDx=0;entryDy=0;" edge="1" parent="1" target="bgkuVg4zOdrc67vG8Jxf-4">
          <mxGeometry width="50" height="50" relative="1" as="geometry">
            <mxPoint x="630" y="130" as="sourcePoint" />
            <mxPoint x="650" y="110" as="targetPoint" />
          </mxGeometry>
        </mxCell>
        <mxCell id="bgkuVg4zOdrc67vG8Jxf-22" value="" style="endArrow=none;html=1;rounded=0;entryX=0.055;entryY=0.73;entryDx=0;entryDy=0;entryPerimeter=0;exitX=0.942;exitY=0.001;exitDx=0;exitDy=0;exitPerimeter=0;" edge="1" parent="1" source="bgkuVg4zOdrc67vG8Jxf-10" target="bgkuVg4zOdrc67vG8Jxf-4">
          <mxGeometry width="50" height="50" relative="1" as="geometry">
            <mxPoint x="620" y="120" as="sourcePoint" />
            <mxPoint x="650" y="90" as="targetPoint" />
          </mxGeometry>
        </mxCell>
        <mxCell id="bgkuVg4zOdrc67vG8Jxf-23" value="" style="endArrow=none;html=1;rounded=0;exitX=0.982;exitY=0.061;exitDx=0;exitDy=0;exitPerimeter=0;entryX=0.096;entryY=0.802;entryDx=0;entryDy=0;entryPerimeter=0;" edge="1" parent="1" source="bgkuVg4zOdrc67vG8Jxf-10" target="bgkuVg4zOdrc67vG8Jxf-4">
          <mxGeometry width="50" height="50" relative="1" as="geometry">
            <mxPoint x="610" y="140" as="sourcePoint" />
            <mxPoint x="650" y="100" as="targetPoint" />
          </mxGeometry>
        </mxCell>
        <mxCell id="bgkuVg4zOdrc67vG8Jxf-24" value="" style="endArrow=none;html=1;rounded=0;entryX=0.062;entryY=0.996;entryDx=0;entryDy=0;exitX=0.939;exitY=0.274;exitDx=0;exitDy=0;exitPerimeter=0;entryPerimeter=0;" edge="1" parent="1" source="bgkuVg4zOdrc67vG8Jxf-3" target="bgkuVg4zOdrc67vG8Jxf-9">
          <mxGeometry width="50" height="50" relative="1" as="geometry">
            <mxPoint x="157" y="622" as="sourcePoint" />
            <mxPoint x="179" y="600" as="targetPoint" />
          </mxGeometry>
        </mxCell>
        <mxCell id="bgkuVg4zOdrc67vG8Jxf-25" value="" style="endArrow=none;html=1;rounded=0;exitX=0.871;exitY=0.169;exitDx=0;exitDy=0;exitPerimeter=0;entryX=0.002;entryY=0.878;entryDx=0;entryDy=0;entryPerimeter=0;" edge="1" parent="1" source="bgkuVg4zOdrc67vG8Jxf-3" target="bgkuVg4zOdrc67vG8Jxf-9">
          <mxGeometry width="50" height="50" relative="1" as="geometry">
            <mxPoint x="150" y="612" as="sourcePoint" />
            <mxPoint x="170" y="590" as="targetPoint" />
          </mxGeometry>
        </mxCell>
        <mxCell id="bgkuVg4zOdrc67vG8Jxf-26" value="" style="endArrow=none;html=1;rounded=0;exitX=0.91;exitY=0.218;exitDx=0;exitDy=0;exitPerimeter=0;entryX=0.018;entryY=0.957;entryDx=0;entryDy=0;entryPerimeter=0;" edge="1" parent="1" source="bgkuVg4zOdrc67vG8Jxf-3" target="bgkuVg4zOdrc67vG8Jxf-9">
          <mxGeometry width="50" height="50" relative="1" as="geometry">
            <mxPoint x="155" y="616" as="sourcePoint" />
            <mxPoint x="175" y="596" as="targetPoint" />
          </mxGeometry>
        </mxCell>
        <mxCell id="bgkuVg4zOdrc67vG8Jxf-28" value="&lt;p style=&quot;line-height: 120%;&quot;&gt;&lt;font style=&quot;font-size: 14px;&quot;&gt;FLIGHT CONTROLLER&lt;/font&gt;&lt;/p&gt;" style="rounded=0;whiteSpace=wrap;html=1;fontStyle=1;fillColor=#dae8fc;strokeColor=#1d314e;" vertex="1" parent="1">
          <mxGeometry x="290" y="230" width="240" height="100" as="geometry" />
        </mxCell>
        <mxCell id="bgkuVg4zOdrc67vG8Jxf-31" value="" style="edgeStyle=elbowEdgeStyle;elbow=vertical;endArrow=classic;html=1;curved=0;rounded=0;endSize=8;startSize=8;exitX=0.939;exitY=-0.008;exitDx=0;exitDy=0;exitPerimeter=0;" edge="1" parent="1" source="bgkuVg4zOdrc67vG8Jxf-28">
          <mxGeometry width="50" height="50" relative="1" as="geometry">
            <mxPoint x="490" y="230" as="sourcePoint" />
            <mxPoint x="540" y="180" as="targetPoint" />
          </mxGeometry>
        </mxCell>
        <mxCell id="bgkuVg4zOdrc67vG8Jxf-32" value="" style="edgeStyle=elbowEdgeStyle;elbow=vertical;endArrow=classic;html=1;curved=0;rounded=0;endSize=8;startSize=8;exitX=0.061;exitY=-0.015;exitDx=0;exitDy=0;exitPerimeter=0;" edge="1" parent="1" source="bgkuVg4zOdrc67vG8Jxf-28">
          <mxGeometry width="50" height="50" relative="1" as="geometry">
            <mxPoint x="320" y="230" as="sourcePoint" />
            <mxPoint x="260" y="180" as="targetPoint" />
            <Array as="points">
              <mxPoint x="290" y="205" />
            </Array>
          </mxGeometry>
        </mxCell>
        <mxCell id="bgkuVg4zOdrc67vG8Jxf-33" value="" style="edgeStyle=elbowEdgeStyle;elbow=horizontal;endArrow=classic;html=1;curved=0;rounded=0;endSize=8;startSize=8;exitX=0;exitY=0.25;exitDx=0;exitDy=0;entryX=0;entryY=0.25;entryDx=0;entryDy=0;" edge="1" parent="1" source="bgkuVg4zOdrc67vG8Jxf-28" target="bgkuVg4zOdrc67vG8Jxf-9">
          <mxGeometry width="50" height="50" relative="1" as="geometry">
            <mxPoint x="120" y="550" as="sourcePoint" />
            <mxPoint x="170" y="240" as="targetPoint" />
            <Array as="points">
              <mxPoint x="60" y="320" />
              <mxPoint x="230" y="430" />
            </Array>
          </mxGeometry>
        </mxCell>
        <mxCell id="bgkuVg4zOdrc67vG8Jxf-34" value="" style="edgeStyle=elbowEdgeStyle;elbow=horizontal;endArrow=classic;html=1;curved=0;rounded=0;endSize=8;startSize=8;exitX=1;exitY=0.25;exitDx=0;exitDy=0;entryX=1;entryY=0.25;entryDx=0;entryDy=0;" edge="1" parent="1" source="bgkuVg4zOdrc67vG8Jxf-28" target="bgkuVg4zOdrc67vG8Jxf-8">
          <mxGeometry width="50" height="50" relative="1" as="geometry">
            <mxPoint x="180" y="565" as="sourcePoint" />
            <mxPoint x="321" y="264" as="targetPoint" />
            <Array as="points">
              <mxPoint x="740" y="330" />
              <mxPoint x="570" y="440" />
            </Array>
          </mxGeometry>
        </mxCell>
        <mxCell id="bgkuVg4zOdrc67vG8Jxf-62" value="" style="shape=mxgraph.arrows.jump-in_arrow_1;html=1;verticalLabelPosition=bottom;verticalAlign=top;strokeWidth=2;strokeColor=#000000;shadow=0;fontFamily=Helvetica;fontSize=12;fontColor=default;fillColor=default;rotation=135;" vertex="1" parent="1">
          <mxGeometry x="655" y="730" width="50" height="50" as="geometry" />
        </mxCell>
        <mxCell id="bgkuVg4zOdrc67vG8Jxf-63" value="" style="shape=mxgraph.arrows.jump-in_arrow_2;html=1;verticalLabelPosition=bottom;verticalAlign=top;strokeWidth=2;strokeColor=#000000;shadow=0;fontFamily=Helvetica;fontSize=12;fontColor=default;fillColor=default;rotation=-130;" vertex="1" parent="1">
          <mxGeometry x="95" y="740" width="50" height="49" as="geometry" />
        </mxCell>
        <mxCell id="bgkuVg4zOdrc67vG8Jxf-65" value="" style="shape=mxgraph.arrows.jump-in_arrow_1;html=1;verticalLabelPosition=bottom;verticalAlign=top;strokeWidth=2;strokeColor=#000000;shadow=0;fontFamily=Helvetica;fontSize=12;fontColor=default;fillColor=default;rotation=-45;" vertex="1" parent="1">
          <mxGeometry x="95" y="-10" width="50" height="50" as="geometry" />
        </mxCell>
        <mxCell id="bgkuVg4zOdrc67vG8Jxf-66" value="" style="shape=mxgraph.arrows.jump-in_arrow_2;html=1;verticalLabelPosition=bottom;verticalAlign=top;strokeWidth=2;strokeColor=#000000;shadow=0;fontFamily=Helvetica;fontSize=12;fontColor=default;fillColor=default;rotation=45;" vertex="1" parent="1">
          <mxGeometry x="655" y="-10" width="50" height="49" as="geometry" />
        </mxCell>
        <mxCell id="bgkuVg4zOdrc67vG8Jxf-72" value="&lt;span style=&quot;font-size: 14px;&quot;&gt;&lt;b&gt;POWER&lt;br&gt;DISTRIBUTION&lt;br&gt;BOARD&lt;/b&gt;&lt;/span&gt;" style="shape=partialRectangle;whiteSpace=wrap;html=1;bottom=1;right=1;left=1;top=0;fillColor=#d5e8d4;routingCenterX=-0.5;shadow=0;strokeColor=#006600;strokeWidth=1;fontFamily=Helvetica;fontSize=12;" vertex="1" parent="1">
          <mxGeometry x="280" y="420" width="250" height="170" as="geometry" />
        </mxCell>
        <mxCell id="bgkuVg4zOdrc67vG8Jxf-73" value="" style="shape=partialRectangle;whiteSpace=wrap;html=1;bottom=1;right=1;left=1;top=0;fillColor=#d5e8d4;routingCenterX=-0.5;shadow=0;strokeColor=#006600;strokeWidth=1;fontFamily=Helvetica;fontSize=12;rotation=-180;" vertex="1" parent="1">
          <mxGeometry x="357.5" y="380" width="95" height="40" as="geometry" />
        </mxCell>
        <mxCell id="bgkuVg4zOdrc67vG8Jxf-75" value="" style="endArrow=none;html=1;rounded=0;fontFamily=Helvetica;fontSize=12;fontColor=default;entryX=1;entryY=0;entryDx=0;entryDy=0;exitX=0;exitY=0;exitDx=0;exitDy=0;" edge="1" parent="1" source="bgkuVg4zOdrc67vG8Jxf-72" target="bgkuVg4zOdrc67vG8Jxf-73">
          <mxGeometry width="50" height="50" relative="1" as="geometry">
            <mxPoint x="370" y="330" as="sourcePoint" />
            <mxPoint x="420" y="280" as="targetPoint" />
          </mxGeometry>
        </mxCell>
        <mxCell id="bgkuVg4zOdrc67vG8Jxf-80" value="" style="endArrow=none;html=1;rounded=0;fontFamily=Helvetica;fontSize=12;fontColor=default;entryX=1;entryY=0;entryDx=0;entryDy=0;exitX=0;exitY=0;exitDx=0;exitDy=0;" edge="1" parent="1" source="bgkuVg4zOdrc67vG8Jxf-73" target="bgkuVg4zOdrc67vG8Jxf-72">
          <mxGeometry width="50" height="50" relative="1" as="geometry">
            <mxPoint x="370" y="330" as="sourcePoint" />
            <mxPoint x="420" y="280" as="targetPoint" />
          </mxGeometry>
        </mxCell>
        <mxCell id="bgkuVg4zOdrc67vG8Jxf-83" value="" style="endArrow=none;html=1;rounded=0;fontFamily=Helvetica;fontSize=12;fontColor=default;entryX=-0.004;entryY=0.165;entryDx=0;entryDy=0;exitX=0;exitY=0.5;exitDx=0;exitDy=0;entryPerimeter=0;" edge="1" parent="1" source="bgkuVg4zOdrc67vG8Jxf-11" target="bgkuVg4zOdrc67vG8Jxf-72">
          <mxGeometry width="50" height="50" relative="1" as="geometry">
            <mxPoint y="80" as="sourcePoint" />
            <mxPoint x="310" y="410" as="targetPoint" />
            <Array as="points">
              <mxPoint x="40" y="150" />
              <mxPoint x="40" y="448" />
            </Array>
          </mxGeometry>
        </mxCell>
        <mxCell id="bgkuVg4zOdrc67vG8Jxf-84" value="" style="endArrow=none;html=1;rounded=0;fontFamily=Helvetica;fontSize=12;fontColor=default;exitX=0;exitY=0.5;exitDx=0;exitDy=0;entryX=-0.004;entryY=0.228;entryDx=0;entryDy=0;entryPerimeter=0;" edge="1" parent="1" source="bgkuVg4zOdrc67vG8Jxf-9" target="bgkuVg4zOdrc67vG8Jxf-72">
          <mxGeometry width="50" height="50" relative="1" as="geometry">
            <mxPoint y="700" as="sourcePoint" />
            <mxPoint x="260" y="450" as="targetPoint" />
            <Array as="points">
              <mxPoint x="40" y="630" />
              <mxPoint x="40" y="460" />
            </Array>
          </mxGeometry>
        </mxCell>
        <mxCell id="bgkuVg4zOdrc67vG8Jxf-85" value="" style="endArrow=none;html=1;rounded=0;fontFamily=Helvetica;fontSize=12;fontColor=default;entryX=1;entryY=0.5;entryDx=0;entryDy=0;exitX=1.004;exitY=0.139;exitDx=0;exitDy=0;exitPerimeter=0;" edge="1" parent="1" source="bgkuVg4zOdrc67vG8Jxf-72" target="bgkuVg4zOdrc67vG8Jxf-10">
          <mxGeometry width="50" height="50" relative="1" as="geometry">
            <mxPoint x="530" y="428" as="sourcePoint" />
            <mxPoint x="770" y="200" as="targetPoint" />
            <Array as="points">
              <mxPoint x="760" y="444" />
              <mxPoint x="760" y="150" />
            </Array>
          </mxGeometry>
        </mxCell>
        <mxCell id="bgkuVg4zOdrc67vG8Jxf-86" value="" style="endArrow=none;html=1;rounded=0;fontFamily=Helvetica;fontSize=12;fontColor=default;entryX=1;entryY=0.5;entryDx=0;entryDy=0;exitX=1.001;exitY=0.228;exitDx=0;exitDy=0;exitPerimeter=0;" edge="1" parent="1" source="bgkuVg4zOdrc67vG8Jxf-72" target="bgkuVg4zOdrc67vG8Jxf-8">
          <mxGeometry width="50" height="50" relative="1" as="geometry">
            <mxPoint x="560" y="450" as="sourcePoint" />
            <mxPoint x="800" y="440" as="targetPoint" />
            <Array as="points">
              <mxPoint x="760" y="460" />
              <mxPoint x="760" y="630" />
            </Array>
          </mxGeometry>
        </mxCell>
        <mxCell id="bgkuVg4zOdrc67vG8Jxf-93" style="edgeStyle=none;rounded=0;orthogonalLoop=1;jettySize=auto;html=1;exitX=0;exitY=0.25;exitDx=0;exitDy=0;entryX=0.58;entryY=1;entryDx=0;entryDy=0;entryPerimeter=0;fontFamily=Helvetica;fontSize=12;fontColor=default;" edge="1" parent="1" source="bgkuVg4zOdrc67vG8Jxf-91" target="bgkuVg4zOdrc67vG8Jxf-72">
          <mxGeometry relative="1" as="geometry" />
        </mxCell>
        <mxCell id="bgkuVg4zOdrc67vG8Jxf-91" value="&lt;font style=&quot;font-size: 15px;&quot;&gt;LiPo&lt;br&gt;Battery&lt;/font&gt;" style="rounded=1;whiteSpace=wrap;html=1;shadow=0;strokeColor=#ff6600;strokeWidth=1;fontFamily=Helvetica;fontSize=12;fillColor=#ffe6cc;rotation=90;" vertex="1" parent="1">
          <mxGeometry x="350" y="860" width="120" height="60" as="geometry" />
        </mxCell>
        <mxCell id="bgkuVg4zOdrc67vG8Jxf-92" value="" style="endArrow=classic;html=1;rounded=0;fontFamily=Helvetica;fontSize=12;fontColor=default;exitX=0;exitY=0.75;exitDx=0;exitDy=0;" edge="1" parent="1" source="bgkuVg4zOdrc67vG8Jxf-91">
          <mxGeometry width="50" height="50" relative="1" as="geometry">
            <mxPoint x="340" y="810" as="sourcePoint" />
            <mxPoint x="395" y="570" as="targetPoint" />
          </mxGeometry>
        </mxCell>
        <mxCell id="bgkuVg4zOdrc67vG8Jxf-94" value="SENSORS" style="swimlane;whiteSpace=wrap;html=1;shadow=0;strokeColor=#000000;strokeWidth=1;fontFamily=Verdana;fontSize=12;fontColor=default;fillColor=default;verticalAlign=middle;startSize=20;" vertex="1" parent="1">
          <mxGeometry x="115" y="320" width="130" height="80" as="geometry">
            <mxRectangle x="95" y="300" width="100" height="30" as="alternateBounds" />
          </mxGeometry>
        </mxCell>
        <mxCell id="bgkuVg4zOdrc67vG8Jxf-95" value="&lt;font style=&quot;font-size: 11px;&quot;&gt;&lt;br&gt;gyroscope&lt;br&gt;&amp;nbsp;accelerometer&lt;br&gt;&amp;nbsp;magnetometer &lt;br&gt;barometer&lt;/font&gt;" style="text;html=1;align=center;verticalAlign=middle;resizable=0;points=[];autosize=1;strokeColor=none;fillColor=none;fontSize=12;fontFamily=Helvetica;fontColor=default;" vertex="1" parent="1">
          <mxGeometry x="130" y="320" width="100" height="90" as="geometry" />
        </mxCell>
        <mxCell id="bgkuVg4zOdrc67vG8Jxf-96" value="" style="shape=flexArrow;endArrow=classic;startArrow=classic;html=1;rounded=0;fontFamily=Helvetica;fontSize=1;fontColor=default;entryX=0;entryY=0.5;entryDx=0;entryDy=0;spacing=1;" edge="1" parent="1" source="bgkuVg4zOdrc67vG8Jxf-95" target="bgkuVg4zOdrc67vG8Jxf-28">
          <mxGeometry width="100" height="100" relative="1" as="geometry">
            <mxPoint x="260" y="410" as="sourcePoint" />
            <mxPoint x="360" y="310" as="targetPoint" />
            <Array as="points">
              <mxPoint x="180" y="280" />
            </Array>
          </mxGeometry>
        </mxCell>
        <mxCell id="bgkuVg4zOdrc67vG8Jxf-98" value="" style="shape=flexArrow;endArrow=classic;html=1;rounded=0;strokeColor=#000000;fontColor=#1A1A1A;exitX=0.5;exitY=1;exitDx=0;exitDy=0;labelBorderColor=default;fillColor=default;" edge="1" parent="1" source="bgkuVg4zOdrc67vG8Jxf-73">
          <mxGeometry width="50" height="50" relative="1" as="geometry">
            <mxPoint x="440" y="370" as="sourcePoint" />
            <mxPoint x="405" y="330" as="targetPoint" />
          </mxGeometry>
        </mxCell>
        <mxCell id="bgkuVg4zOdrc67vG8Jxf-100" value="" style="shape=or;whiteSpace=wrap;html=1;rotation=-180;direction=south;" vertex="1" parent="1">
          <mxGeometry x="290" width="80" height="60" as="geometry" />
        </mxCell>
        <mxCell id="bgkuVg4zOdrc67vG8Jxf-103" value="" style="edgeStyle=orthogonalEdgeStyle;rounded=0;orthogonalLoop=1;jettySize=auto;html=1;strokeColor=#736CA8;fontColor=#1A1A1A;entryX=0.75;entryY=0;entryDx=0;entryDy=0;" edge="1" parent="1" source="bgkuVg4zOdrc67vG8Jxf-101" target="bgkuVg4zOdrc67vG8Jxf-28">
          <mxGeometry relative="1" as="geometry">
            <Array as="points">
              <mxPoint x="490" y="90" />
              <mxPoint x="470" y="90" />
            </Array>
          </mxGeometry>
        </mxCell>
        <mxCell id="bgkuVg4zOdrc67vG8Jxf-101" value="" style="shape=or;whiteSpace=wrap;html=1;rotation=-180;direction=south;" vertex="1" parent="1">
          <mxGeometry x="450" width="80" height="60" as="geometry" />
        </mxCell>
        <mxCell id="bgkuVg4zOdrc67vG8Jxf-102" value="" style="endArrow=classic;html=1;rounded=0;strokeColor=#736CA8;fontColor=#1A1A1A;entryX=0.25;entryY=0;entryDx=0;entryDy=0;exitX=0;exitY=0.5;exitDx=0;exitDy=0;exitPerimeter=0;" edge="1" parent="1" source="bgkuVg4zOdrc67vG8Jxf-100" target="bgkuVg4zOdrc67vG8Jxf-28">
          <mxGeometry width="50" height="50" relative="1" as="geometry">
            <mxPoint x="310" y="210" as="sourcePoint" />
            <mxPoint x="360" y="160" as="targetPoint" />
            <Array as="points">
              <mxPoint x="330" y="90" />
              <mxPoint x="350" y="90" />
            </Array>
          </mxGeometry>
        </mxCell>
      </root>
    </mxGraphModel>
  </diagram>
</mxfile>
